<svg xmlns="http://www.w3.org/2000/svg" viewBox="200 100 650 1150">
    <defs>
        <style>
            .cls-1 { fill: #d6ac7a; }
            .cls-2 { fill: #ec5748; }
            .cls-3 { fill: #fff; }
            .cls-4 { fill: none; stroke: #fff; stroke-linecap: round; stroke-miterlimit: 10; stroke-width: 11px; }
        </style>
    </defs>

    <!-- Verre et vin -->
    <g class="wine-liquid">
        <path class="cls-2" d="M673.53,461.99c-237.06,92.26-422.64-13.79-422.64-13.79,0,0,46.07-48.45,222.61,1.41,82.82,27.97,190.85,17.44,200.03,12.38Z"/>
        <path class="cls-2" d="M890.51,424.47c-14.16-129.98-128.7-70.78-128.7-70.78,0,0,184.03,3.86-64.35,113.25s-446.57-3.86-446.57-3.86c0,0,137.58,259.51,428.56,181.46,38.13-10.23,225.22-90.09,211.06-220.07ZM573.73,638.89c164.53-40.11,246.8-152.64,246.8-152.64-30.12,113.55-209.62,150.32-246.8,152.64Z"/>
    </g>

    <ellipse class="cls-4" cx="565.92" cy="282.69" rx="71.79" ry="380" transform="translate(143.49 753.57) rotate(-74.65)"/>
    <ellipse class="cls-4" cx="321.5" cy="1195.46" rx="41.03" ry="217.19" transform="translate(-916.41 1189) rotate(-74.65)"/>
    <g>
        <path class="cls-4" d="M199.48,182.09s-78.41,294.44,132.32,425.45c8.99,5.59,17.21,12.34,24.34,20.17,43.89,48.12,76.03,70.33,47.4,179.79,0,0-98.62,360.93-148.48,353.57"/>
        <path class="cls-4" d="M199.48,182.09c-10.5,38.24,145.05,114.27,347.43,169.83,202.38,55.56,374.95,69.61,385.44,31.37,0,0-75.54,295.09-323.37,307.33-10.57.52-21.04,2.44-31.07,5.82-61.73,20.77-100.61,24.57-128.72,134.17,0,0-99.92,351.79-52.77,369.56"/>
    </g>
    <path class="cls-3" d="M411.58,650.38c31.14,17.67,56.28,33.56,110.12,36.91,0,0-38.09,8.75-60.31.96s-49.81-37.86-49.81-37.86Z"/>
    <path class="cls-3" d="M364.01,1230.86c72.3,33.01,121.34,15.4,121.34,15.4,0,0-75.76-4.4-121.34-15.4Z"/>
    <path class="cls-3" d="M332.77,1087.5s-12.12,47.23-42.64,73.57c17.56-11.91,22.24-4.75,35.61-28.36,13.38-23.62,7.02-45.2,7.02-45.2Z"/>
    <path class="cls-3" d="M260.31,1166.22s4.91,20.57,49.08,21.5c44.17.93-46.51-9.12-49.08-21.5Z"/>
    <path class="cls-2" d="M789.78,249.97s8.14-100.63,61.87-76.24c15.27,7.59,11.31,30.09,3.73,39.32s-19.45,12.53-32.63,11.87-32.96,25.05-32.96,25.05Z"/>
</svg>
