<svg xmlns="http://www.w3.org/2000/svg" viewBox="0 0 300 500">
    <defs>
        <style>
            .bg { fill: #0f1419; }
            .letter { fill: #d6ac7a; stroke: #fff; stroke-width: 3; stroke-linejoin: round; }
        </style>
    </defs>

    <!-- Fond sombre avec coins arrondis -->
    <rect class="bg" width="300" height="500" rx="40"/>

    <!-- Lettre B avec contour blanc -->
    <g transform="translate(20, 15)">
        <path class="letter" d="M170.05,236.57c93.02-62.61,52.67-140.58,31.3-158.31C171.75,53.7-5.25,80.95.12,100.62c24.15,0,23.25,49.19,23.25,49.19v279.94s2.32,21.31-12.94,46.01-1.09,21.07-1.09,21.07c0,0,84.27-14.17,136.22-41.77,53.4-31.6,95.9-67.2,95.9-140.94s-71.41-77.55-71.41-77.55ZM99.4,106.88s53.66.89,53.66,59.92-53.66,69.76-53.66,69.76V106.88ZM99.4,424.39v-158.31s65.51,1.09,65.51,73.15-65.51,85.16-65.51,85.16Z"/>
    </g>
</svg>
