<svg width="48" height="48" viewBox="0 0 48 48" fill="none" xmlns="http://www.w3.org/2000/svg">
  <!-- Verre à cocktail inversé -->
  <path d="M24 4L20 12H28L24 4Z" stroke="currentColor" stroke-width="2" stroke-linecap="round" stroke-linejoin="round"/>
  <line x1="24" y1="4" x2="24" y2="1" stroke="currentColor" stroke-width="2" stroke-linecap="round"/>

  <!-- Visage rond -->
  <circle cx="24" cy="28" r="14" stroke="currentColor" stroke-width="2"/>

  <!-- Lunettes -->
  <rect x="16" y="24" width="6" height="5" rx="1" stroke="currentColor" stroke-width="1.5" fill="none"/>
  <rect x="26" y="24" width="6" height="5" rx="1" stroke="currentColor" stroke-width="1.5" fill="none"/>
  <line x1="22" y1="26.5" x2="26" y2="26.5" stroke="currentColor" stroke-width="1.5"/>

  <!-- Barbe (forme simple) -->
  <path d="M17 34C17 34 19 38 24 38C29 38 31 34 31 34" stroke="currentColor" stroke-width="2" stroke-linecap="round"/>
  <path d="M18 35.5C18 35.5 20 37 24 37C28 37 30 35.5 30 35.5" stroke="currentColor" stroke-width="1.5" stroke-linecap="round"/>

  <!-- Sourire -->
  <path d="M19 32C19 32 21 34 24 34C27 34 29 32 29 32" stroke="currentColor" stroke-width="1.5" stroke-linecap="round"/>
</svg>
